<?xml version="1.0" standalone="no"?>
<!DOCTYPE svg PUBLIC "-//W3C//DTD SVG 20010904//EN"
 "http://www.w3.org/TR/2001/REC-SVG-20010904/DTD/svg10.dtd">
<svg version="1.0" xmlns="http://www.w3.org/2000/svg"
 width="300.000000pt" height="257.000000pt" viewBox="0 0 300.000000 257.000000"
 preserveAspectRatio="xMidYMid meet">
<metadata>
Created by potrace 1.10, written by Peter Selinger 2001-2011
</metadata>
<g transform="translate(0.000000,257.000000) scale(0.100000,-0.100000)"
fill="#000000" stroke="none">
<path d="M2288 2400 c-41 -32 -58 -80 -58 -162 0 -40 5 -92 10 -116 10 -42 9
-45 -22 -73 -24 -23 -33 -27 -39 -17 -4 7 -19 28 -33 47 -31 42 -33 72 -6 89
16 10 24 10 40 0 26 -16 40 0 16 18 -28 20 -79 17 -104 -6 -26 -25 -27 -41 -6
-81 14 -28 14 -34 -2 -74 -9 -25 -23 -50 -32 -57 -13 -11 -14 -2 -10 80 4 83
2 94 -14 103 -15 8 -18 6 -18 -13 0 -35 -18 -92 -36 -113 -14 -19 -15 -16 -10
37 5 50 4 59 -13 68 -30 16 -31 14 -31 -54 0 -44 5 -67 15 -76 20 -16 43 -6
55 25 12 33 21 32 18 -2 -5 -88 43 -97 82 -16 l25 51 22 -32 21 -32 -24 -23
c-26 -25 -29 -42 -14 -72 15 -27 35 -24 60 9 17 20 21 36 17 64 -4 31 0 41 28
68 l32 31 14 -22 c11 -16 21 -20 36 -15 17 5 22 18 28 71 7 68 34 119 54 100
7 -7 4 -40 -9 -104 -11 -52 -20 -109 -20 -128 0 -43 25 -103 43 -103 34 0 49
38 91 233 2 9 1 17 -4 17 -4 0 -14 -35 -23 -79 -19 -93 -43 -155 -57 -146 -13
8 -13 111 2 213 11 79 10 84 -9 104 -17 16 -25 18 -41 9 -22 -12 -42 -58 -43
-105 -1 -23 -5 -15 -18 34 l-18 65 49 53 c51 57 64 87 54 127 -5 20 -12 25
-40 25 -18 0 -45 -9 -58 -20z m85 -13 c7 -20 -16 -67 -56 -112 -33 -37 -36
-38 -37 -17 0 45 23 113 43 127 26 18 43 19 50 2z m-108 -177 c-1 -17 2 -33 7
-36 4 -3 8 -10 8 -17 0 -8 -3 -8 -11 0 -13 13 -22 83 -11 83 5 0 8 -14 7 -30z
m-145 -34 c0 -2 -8 -10 -17 -17 -16 -13 -17 -12 -4 4 13 16 21 21 21 13z m160
-46 c0 -5 -4 -10 -10 -10 -5 0 -10 5 -10 10 0 6 5 10 10 10 6 0 10 -4 10 -10z
m19 -65 c0 -20 0 -20 -9 0 -5 11 -9 27 -9 35 -1 13 0 13 9 0 5 -8 9 -24 9 -35z
m-129 -101 c0 -21 -18 -54 -30 -54 -14 0 -12 26 2 50 15 24 28 26 28 4z"/>
<path d="M667 2365 c-47 -45 -34 -111 47 -237 l37 -58 -33 -29 -33 -30 -22 21
c-27 25 -77 17 -99 -17 -22 -33 -29 -99 -15 -133 36 -88 187 -82 260 10 49 61
25 159 -79 319 -54 81 -63 124 -32 152 21 19 31 21 51 8 12 -8 12 -12 2 -25
-7 -8 -11 -30 -9 -48 2 -25 8 -34 25 -36 26 -4 39 31 29 73 -4 17 -2 27 8 31
22 8 56 -14 56 -36 0 -11 5 -20 10 -20 15 0 12 23 -6 49 -14 20 -23 22 -55 18
-22 -3 -42 -1 -45 4 -11 19 -69 9 -97 -16z m113 -55 c0 -41 -14 -55 -22 -22
-5 18 7 62 17 62 3 0 5 -18 5 -40z m-100 -65 c14 -19 14 -19 -2 -6 -10 7 -18
18 -18 24 0 6 1 8 3 6 1 -2 9 -13 17 -24z m45 -58 c4 4 5 3 2 -4 -4 -6 -2 -13
5 -15 9 -3 9 -6 0 -11 -7 -5 -17 4 -27 22 -18 36 -20 56 -2 23 7 -12 17 -19
22 -15z m28 -51 c4 -10 1 -13 -8 -9 -8 3 -12 9 -9 14 7 12 11 11 17 -5z m28
-69 c-10 -9 -11 -8 -5 6 3 10 9 15 12 12 3 -3 0 -11 -7 -18z m27 -64 c-2 -45
-9 -35 -12 17 -2 25 0 36 5 28 4 -7 8 -28 7 -45z m-38 6 c15 -54 6 -89 -31
-127 -55 -56 -128 -61 -163 -10 -28 39 -17 127 18 150 18 13 53 9 66 -7 9 -11
8 -20 -9 -44 -22 -30 -28 -85 -11 -96 35 -22 79 50 60 98 -6 17 -2 28 18 50
14 15 29 27 33 27 5 0 13 -18 19 -41z m-80 -63 c0 -33 -25 -64 -40 -50 -9 9
-8 21 5 48 18 38 35 39 35 2z m123 -1 c-3 -9 -8 -14 -10 -11 -3 3 -2 9 2 15 9
16 15 13 8 -4z"/>
<path d="M1757 2285 c-33 -22 -39 -23 -63 -10 -19 10 -34 11 -54 3 -39 -13
-80 -78 -50 -78 6 0 10 6 10 13 0 21 39 57 54 51 8 -3 19 -18 25 -32 9 -22 8
-35 -9 -69 -28 -58 -46 -170 -33 -208 21 -63 80 -30 104 59 15 56 15 176 0
205 -11 20 -10 26 6 42 10 11 33 23 51 28 27 8 34 6 47 -12 19 -27 19 -97 0
-143 -12 -30 -17 -34 -41 -28 -17 4 -29 2 -35 -7 -16 -26 -9 -39 20 -39 27 0
31 -5 52 -67 44 -136 81 -183 141 -183 29 0 41 6 54 25 8 13 14 32 11 42 -3
15 -6 14 -14 -7 -32 -76 -64 -54 -123 82 -23 53 -48 102 -56 109 -13 10 -11
16 10 38 31 33 46 72 46 122 0 82 -79 115 -153 64z m-37 -85 c0 -10 5 -22 10
-25 6 -3 10 -16 9 -28 0 -14 -2 -16 -6 -7 -2 8 -8 24 -13 35 -16 40 -20 56
-10 50 6 -3 10 -15 10 -25z m-15 -177 c-11 -109 -55 -128 -55 -24 0 51 21 148
38 176 12 18 24 -89 17 -152z m105 57 c0 -5 -9 -10 -20 -10 -11 0 -20 5 -20
10 0 6 9 10 20 10 11 0 20 -4 20 -10z m102 -187 c7 -9 7 -13 0 -13 -12 0 -22
25 -21 48 1 13 3 12 6 -3 3 -11 10 -26 15 -32z"/>
<path d="M1411 2191 c-15 -28 -14 -57 4 -75 14 -13 13 -21 -8 -68 -25 -55 -52
-86 -65 -74 -4 4 -7 35 -7 68 0 72 -18 88 -40 35 -8 -20 -19 -38 -25 -42 -18
-11 -11 39 11 74 16 26 25 32 45 28 29 -5 34 19 5 28 -41 13 -94 -27 -107 -80
-4 -16 -15 -40 -24 -52 -17 -22 -18 -22 -24 29 -8 55 -48 108 -83 108 -45 0
-93 -73 -78 -119 6 -21 -23 -91 -38 -91 -6 0 -8 36 -5 89 4 57 2 93 -5 100
-17 17 -27 13 -27 -11 0 -35 -18 -92 -36 -113 -14 -19 -15 -16 -10 34 6 56 -4
81 -30 81 -19 0 -19 -109 0 -135 17 -23 43 -14 56 20 12 33 17 32 18 -5 1 -50
12 -70 36 -70 17 0 27 9 36 30 10 24 16 28 26 19 21 -17 51 -1 68 35 9 19 16
39 16 45 0 6 4 11 9 11 16 0 0 -114 -18 -128 -51 -40 -101 -97 -106 -122 -9
-39 13 -82 48 -94 60 -21 114 56 124 176 4 54 11 79 26 95 19 22 22 22 39 6
14 -13 21 -14 30 -5 18 18 28 14 28 -11 0 -32 33 -61 59 -52 24 7 55 55 71
112 7 23 19 44 26 47 11 4 13 -15 11 -98 -2 -108 7 -136 43 -136 13 0 23 14
34 48 23 70 48 184 41 190 -8 8 -10 4 -33 -102 -26 -116 -47 -154 -35 -61 4
33 8 84 8 113 0 59 -14 76 -51 62 -21 -8 -23 -6 -26 32 -3 46 -21 60 -37 29z
m29 -36 c0 -19 -4 -35 -10 -35 -5 0 -10 16 -10 35 0 19 5 35 10 35 6 0 10 -16
10 -35z m-324 -20 c7 -17 -23 -100 -41 -115 -30 -25 -29 59 1 108 17 25 32 28
40 7z m389 -34 c3 -5 1 -12 -5 -16 -5 -3 -10 1 -10 9 0 18 6 21 15 7z m0 -58
c-3 -16 -11 -32 -16 -37 -5 -6 -4 5 1 25 6 18 10 35 10 36 0 2 3 3 6 3 3 0 3
-12 -1 -27z m-18 -75 c-3 -8 -6 -5 -6 6 -1 11 2 17 5 13 3 -3 4 -12 1 -19z
m-357 -21 c0 -24 -25 -128 -36 -149 -16 -31 -58 -39 -68 -12 -15 38 -5 66 40
114 40 42 64 60 64 47z"/>
<path d="M1075 1860 c-3 -5 -1 -10 4 -10 6 0 11 5 11 10 0 6 -2 10 -4 10 -3 0
-8 -4 -11 -10z"/>
<path d="M1745 1959 c-4 -6 -5 -12 -2 -15 2 -3 7 2 10 11 7 17 1 20 -8 4z"/>
<path d="M1846 1852 c-3 -5 1 -9 9 -9 8 0 12 4 9 9 -3 4 -7 8 -9 8 -2 0 -6 -4
-9 -8z"/>
<path d="M1223 1812 c-23 -14 -43 -81 -43 -141 0 -33 -4 -63 -10 -66 -6 -3
-10 4 -10 17 0 14 -6 33 -14 43 -12 16 -16 17 -30 6 -8 -7 -18 -28 -22 -46
l-6 -32 -23 23 c-16 16 -36 24 -59 24 -42 0 -57 -17 -19 -22 36 -4 52 -47 52
-140 1 -79 17 -158 36 -184 27 -35 35 4 35 176 0 143 8 207 23 190 2 -3 9 -45
16 -95 7 -50 19 -97 27 -105 12 -12 14 -6 14 50 1 78 17 249 26 273 8 22 34
22 34 -1 0 -9 -6 -73 -14 -142 -26 -222 -24 -318 4 -351 l20 -24 19 25 c11 14
28 53 38 87 14 50 21 62 35 58 9 -3 19 -1 23 5 11 17 20 11 21 -15 4 -60 48
-72 89 -23 20 23 29 28 35 18 10 -16 30 -4 30 19 0 28 28 115 44 136 14 18 15
8 13 -106 -1 -95 1 -130 12 -142 23 -29 38 -19 62 38 21 50 24 53 39 40 23
-21 37 -19 66 10 14 14 31 22 39 19 8 -4 22 -1 30 6 12 10 15 9 15 -7 0 -27
28 -63 50 -63 31 0 100 109 100 158 0 25 -16 2 -30 -43 -16 -51 -47 -95 -67
-95 -13 0 -15 10 -11 58 3 31 3 63 1 70 -9 24 -30 11 -46 -28 -15 -40 -37 -54
-37 -25 0 20 29 77 44 88 6 4 21 5 34 2 28 -7 29 11 1 25 -46 25 -109 -29
-109 -93 0 -39 -21 -72 -41 -65 -10 4 -14 24 -14 79 0 67 -2 74 -20 74 -18 0
-20 -8 -23 -62 -4 -68 -39 -174 -61 -181 -11 -4 -13 5 -7 44 3 27 9 86 13 130
5 77 4 83 -16 93 -26 15 -36 9 -58 -32 l-17 -32 -6 25 c-4 17 -14 26 -31 28
-25 3 -25 3 -18 -65 5 -62 4 -71 -18 -101 -34 -45 -48 -36 -49 29 -1 95 -11
104 -44 39 -24 -46 -46 -54 -36 -12 11 45 41 77 70 75 31 -2 34 12 7 27 -46
24 -111 -35 -112 -104 -1 -52 -40 -168 -58 -174 -12 -4 -13 17 -8 129 3 74 11
184 18 246 11 92 11 114 0 127 -15 17 -29 20 -48 8z m-149 -234 c12 -17 13
-24 3 -30 -8 -5 -8 -8 -1 -8 8 0 12 -30 11 -92 0 -86 -1 -91 -13 -63 -9 20
-12 49 -8 86 4 37 2 59 -5 64 -6 3 -9 10 -6 15 3 5 1 19 -5 30 -15 27 5 26 24
-2z m653 -90 c-3 -7 -5 -2 -5 12 0 14 2 19 5 13 2 -7 2 -19 0 -25z"/>
<path d="M1706 1671 c-7 -11 28 -51 45 -51 17 0 6 31 -18 47 -14 9 -23 11 -27
4z"/>
<path d="M1966 1585 c-9 -26 -7 -32 5 -12 6 10 9 21 6 23 -2 3 -7 -2 -11 -11z"/>
<path d="M490 1230 c-10 -6 -13 -24 -11 -72 1 -29 5 -38 19 -38 10 0 23 -14
31 -32 26 -58 57 -78 121 -78 50 0 62 4 89 29 17 16 31 34 31 40 0 6 -42 11
-117 13 -82 2 -118 7 -121 16 -3 9 202 12 1002 12 973 0 1006 1 1015 19 9 17
8 77 -2 87 -5 6 -2048 10 -2057 4z m2050 -43 c0 -18 -5 -38 -12 -45 -9 -9
-247 -12 -1009 -12 -549 0 -1004 3 -1013 6 -11 4 -16 19 -16 45 l0 39 1025 0
1025 0 0 -33z m-1790 -113 c0 -16 -44 -43 -78 -49 -44 -7 -112 17 -112 40 0
12 18 15 95 15 52 0 95 -3 95 -6z"/>
<path d="M2415 1150 l-80 -6 75 -2 c41 -1 82 3 90 8 8 5 11 9 5 8 -5 -1 -46
-5 -90 -8z"/>
<path d="M558 1143 c7 -3 16 -2 19 1 4 3 -2 6 -13 5 -11 0 -14 -3 -6 -6z"/>
<path d="M692 1143 c59 -2 158 -2 220 0 62 1 14 3 -107 3 -121 0 -172 -2 -113
-3z"/>
<path d="M1188 1143 c12 -2 30 -2 40 0 9 3 -1 5 -23 4 -22 0 -30 -2 -17 -4z"/>
<path d="M1558 1143 c134 -2 350 -2 480 0 130 1 21 2 -243 2 -264 0 -371 -1
-237 -2z"/>
<path d="M2495 1101 c-4 -7 -49 -11 -116 -11 -118 0 -132 -8 -87 -50 60 -55
167 -39 204 31 14 29 14 54 -1 30z m-15 -28 c0 -13 -31 -33 -41 -27 -8 4 -9 3
-5 -4 4 -7 -7 -13 -29 -18 -49 -9 -114 19 -115 49 0 4 43 7 95 6 52 0 95 -3
95 -6z"/>
<path d="M780 1079 c0 -19 60 -68 88 -71 67 -8 129 19 143 61 3 9 17 1 41 -23
33 -33 40 -36 97 -36 34 0 61 4 61 10 0 6 7 10 15 10 12 0 35 36 35 55 0 2
-108 4 -240 5 -172 0 -240 -3 -240 -11z m210 -8 c-1 -47 -109 -62 -167 -25
-44 28 -26 35 72 33 52 -2 95 -5 95 -8z m250 -1 c0 -19 -44 -43 -86 -48 -37
-4 -45 -2 -39 8 5 9 4 11 -3 6 -15 -9 -48 9 -56 29 -5 14 7 15 89 14 52 -2 95
-6 95 -9z"/>
<path d="M1280 1075 c0 -17 36 -52 61 -60 21 -7 49 -118 49 -194 0 -39 -4 -51
-17 -54 -10 -3 55 -5 145 -6 151 -1 162 -2 162 -20 0 -36 -23 -42 -160 -40
-164 2 -170 3 -171 43 0 26 -2 28 -8 11 -12 -28 2 -59 28 -63 26 -4 26 -4 2
-50 -30 -59 -125 -131 -223 -171 -64 -26 -116 -76 -125 -122 -3 -16 -10 -32
-14 -35 -16 -10 -10 -91 7 -98 9 -3 238 -6 509 -6 542 0 505 -4 505 60 0 64
37 60 -506 60 -432 0 -494 2 -494 15 0 13 60 15 484 15 378 0 485 -3 489 -12
4 -10 6 -10 6 -1 1 6 -8 28 -20 47 -16 28 -41 46 -115 82 -114 56 -177 106
-210 167 l-24 47 24 0 c27 0 41 27 31 60 -4 13 -15 20 -32 20 l-26 0 6 78 c7
103 25 153 60 170 15 7 34 26 42 43 l16 29 -228 -2 c-126 -1 -186 -4 -135 -5
50 -2 92 -7 92 -12 0 -16 -36 -40 -73 -46 -23 -5 -35 -11 -30 -16 18 -18 74 3
101 37 28 36 42 43 42 21 0 -7 9 -20 19 -29 16 -14 18 -22 10 -55 -5 -21 -9
-77 -9 -124 l0 -87 -35 0 -35 0 0 53 c0 70 -11 175 -19 175 -3 0 -4 -52 -2
-115 l3 -115 -26 0 c-14 0 -26 1 -27 3 0 1 -3 34 -5 72 -3 39 -12 94 -21 124
-13 43 -22 56 -45 65 -16 6 -31 21 -34 33 -7 25 -24 31 -24 8z m450 -5 c0 -22
-45 -50 -83 -50 -47 0 -107 31 -107 54 0 3 43 6 95 6 54 0 95 -4 95 -10z m-92
-64 c20 4 22 1 16 -24 -4 -15 -11 -37 -15 -50 -5 -13 -9 -54 -9 -93 0 -66 -1
-69 -22 -65 -13 3 -29 5 -37 5 -11 1 -13 19 -8 99 6 81 10 116 16 140 1 1 9
-1 19 -6 9 -5 27 -8 40 -6z m-80 -370 c14 -71 55 -150 103 -203 22 -24 39 -47
39 -53 0 -6 -67 -10 -190 -10 -104 0 -190 2 -190 5 0 2 20 27 45 55 47 53 75
102 93 160 19 63 23 90 13 90 -5 0 -12 -19 -16 -42 -10 -60 -48 -138 -94 -189
-21 -24 -40 -51 -43 -59 -4 -12 -29 -15 -137 -16 -131 -1 -132 -1 -118 20 7
12 48 38 91 59 63 31 81 36 88 25 7 -10 8 -9 4 4 -4 13 9 28 49 55 40 29 61
52 82 95 l28 57 71 0 71 1 11 -54z m93 1 c30 -60 129 -143 206 -172 58 -22
107 -53 122 -77 9 -14 8 -18 -5 -18 -8 0 -25 5 -36 11 -11 6 -18 7 -14 1 3 -6
-32 -10 -97 -10 l-102 0 -23 31 c-12 18 -40 55 -62 82 -41 50 -70 125 -70 177
0 24 4 28 28 27 22 0 31 -9 53 -52z m361 -362 c-2 -22 -6 -42 -9 -45 -5 -5
-494 -4 -580 2 -29 1 -53 0 -53 -4 0 -5 -11 -8 -25 -8 -19 0 -23 4 -18 17 4
11 3 14 -6 9 -7 -5 -77 -10 -156 -13 l-143 -6 -7 33 c-4 17 -3 36 2 41 10 10
166 14 633 14 l365 0 -3 -40z"/>
<path d="M1416 603 c-6 -14 -5 -15 5 -6 7 7 10 15 7 18 -3 3 -9 -2 -12 -12z"/>
<path d="M1960 260 c18 -12 30 -13 30 -2 0 4 -10 9 -22 9 -18 2 -20 0 -8 -7z"/>
<path d="M1838 253 c6 -2 18 -2 25 0 6 3 1 5 -13 5 -14 0 -19 -2 -12 -5z"/>
<path d="M1770 1079 c0 -6 14 -24 31 -40 26 -24 40 -29 83 -29 58 0 110 26
119 59 5 20 2 21 -114 21 -80 0 -119 -4 -119 -11z m208 -11 c-8 -24 -76 -51
-113 -44 -34 7 -65 29 -65 47 0 5 41 9 91 9 68 0 90 -3 87 -12z"/>
<path d="M2020 1079 c0 -6 14 -24 31 -40 27 -25 39 -29 88 -29 59 1 87 15 110
58 l12 22 -121 0 c-80 0 -120 -4 -120 -11z m210 -8 c-1 -17 -19 -30 -56 -41
-58 -17 -133 7 -134 43 0 4 43 7 95 6 52 -2 95 -5 95 -8z"/>
</g>
</svg>
