<?xml version="1.0" standalone="no"?>
<!DOCTYPE svg PUBLIC "-//W3C//DTD SVG 20010904//EN"
 "http://www.w3.org/TR/2001/REC-SVG-20010904/DTD/svg10.dtd">
<svg version="1.0" xmlns="http://www.w3.org/2000/svg"
 width="126.000000pt" height="50.000000pt" viewBox="0 0 126.000000 118.000000"
 preserveAspectRatio="xMidYMid meet">
<metadata>
Created by potrace 1.10, written by Peter Selinger 2001-2011
</metadata>
<g transform="translate(0.000000,118.000000) scale(0.100000,-0.100000)"
fill="#000000" stroke="none">
<path d="M1740 1035 c0 -7 30 -13 34 -7 3 4 -4 9 -15 9 -10 1 -19 0 -19 -2z"/>
<path d="M1822 1025 c-40 -29 -56 -74 -55 -156 1 -96 30 -172 65 -167 18 2 23
11 26 43 5 59 22 105 38 105 18 0 18 -27 -2 -121 -18 -82 -14 -138 13 -164 15
-15 17 -15 34 2 18 17 59 155 59 195 0 35 -17 9 -22 -34 -7 -58 -37 -158 -48
-158 -16 0 -22 85 -11 145 22 117 8 170 -37 146 -11 -6 -21 -8 -24 -6 -3 3 -5
-3 -5 -13 1 -100 -15 -119 -27 -32 -7 49 -5 53 34 97 44 51 58 87 43 112 -14
22 -53 25 -81 6z m65 -47 c-4 -13 -22 -42 -41 -63 -39 -44 -45 -34 -26 37 18
63 82 88 67 26z m-57 -253 c0 -5 -5 -3 -10 5 -5 8 -10 20 -10 25 0 6 5 3 10
-5 5 -8 10 -19 10 -25z"/>
<path d="M390 985 c-33 -36 -24 -96 29 -180 22 -37 41 -70 41 -74 0 -4 -12
-18 -26 -30 -24 -21 -27 -21 -43 -7 -55 49 -123 -21 -107 -109 9 -47 47 -75
103 -75 53 0 91 18 127 60 46 56 33 124 -49 255 -30 48 -58 97 -61 109 -8 32
26 71 54 62 21 -7 21 -8 5 -32 -13 -20 -14 -30 -5 -49 22 -47 58 -16 49 40 -5
29 -3 35 13 35 10 0 28 -12 39 -27 14 -19 20 -23 21 -12 0 28 -36 52 -69 46
-17 -4 -33 -2 -36 3 -12 19 -61 10 -85 -15z m104 -59 c-3 -9 -10 -16 -15 -16
-11 0 -12 43 -2 54 10 10 24 -20 17 -38z m-57 -82 c-3 -4 -2 -16 4 -28 10 -20
9 -20 -5 -2 -14 17 -13 36 1 36 4 0 3 -3 0 -6z m48 -84 c3 -5 1 -10 -4 -10 -6
0 -11 5 -11 10 0 6 2 10 4 10 3 0 8 -4 11 -10z m0 -94 c9 -57 -13 -99 -65
-126 -70 -36 -120 -4 -120 77 0 30 6 49 20 63 24 24 29 24 58 4 l22 -15 -20
-26 c-38 -49 -17 -110 26 -78 14 10 19 26 19 64 0 38 5 54 20 65 30 23 33 20
40 -28z m-75 -40 c0 -35 -10 -56 -26 -56 -17 0 -18 20 -2 55 14 32 28 32 28 1z"/>
<path d="M1358 924 c-16 -8 -28 -19 -28 -25 0 -6 -10 -3 -22 5 -12 9 -31 16
-41 16 -21 0 -67 -43 -67 -62 0 -7 10 -1 21 15 25 33 46 35 60 3 8 -18 7 -30
-4 -52 -22 -43 -40 -148 -33 -189 6 -32 10 -36 33 -33 31 4 64 59 65 108 1 21
4 28 12 20 5 -5 20 -10 32 -10 19 0 25 -10 39 -57 33 -114 71 -163 127 -163
29 0 64 39 55 62 -3 8 -9 2 -15 -14 -26 -64 -50 -44 -114 93 -44 94 -45 96
-27 118 29 35 41 92 28 130 -18 51 -66 65 -121 35z m72 -13 c13 -25 13 -90 0
-128 -9 -25 -16 -29 -44 -29 -33 1 -34 2 -39 51 -3 28 -8 58 -12 67 -5 13 2
23 27 38 41 25 55 25 68 1z m-126 -223 c-6 -54 -26 -90 -42 -74 -12 13 -5 101
14 162 l17 59 9 -45 c5 -25 6 -71 2 -102z m91 52 c3 -5 -3 -10 -15 -10 -12 0
-18 5 -15 10 3 6 10 10 15 10 5 0 12 -4 15 -10z"/>
<path d="M495 861 c-3 -5 -2 -12 3 -15 5 -3 9 1 9 9 0 17 -3 19 -12 6z"/>
<path d="M1044 824 c-4 -14 -1 -37 5 -50 12 -27 -5 -82 -36 -116 -24 -26 -34
-12 -32 43 3 66 -15 85 -36 36 -21 -50 -40 -60 -31 -17 9 46 34 73 63 65 28
-7 30 10 4 25 -39 20 -101 -31 -101 -83 0 -8 -8 -21 -19 -31 -18 -16 -19 -15
-24 30 -8 78 -67 115 -112 70 -20 -20 -25 -35 -25 -74 0 -36 -6 -57 -20 -73
l-21 -24 3 85 c2 74 0 85 -15 88 -19 4 -23 -22 -18 -108 4 -70 40 -95 63 -45
8 19 16 23 33 19 16 -4 28 2 44 22 11 15 21 33 21 40 0 7 4 15 8 18 17 10 0
-99 -17 -112 -61 -47 -91 -86 -91 -118 0 -46 32 -78 68 -69 48 11 82 79 82
164 0 27 8 52 22 71 19 27 22 28 34 12 11 -14 16 -15 33 -4 19 11 21 10 21
-11 0 -13 9 -32 20 -42 20 -18 21 -18 44 4 21 20 44 63 60 114 3 9 10 17 17
17 8 0 9 -23 5 -77 -7 -83 5 -125 36 -131 18 -3 51 85 63 168 11 74 -11 33
-24 -45 -18 -108 -33 -115 -25 -13 8 99 -2 124 -43 113 -21 -5 -23 -2 -23 30
0 42 -26 49 -36 9z m26 -16 c0 -21 -3 -29 -10 -22 -5 5 -7 19 -4 32 9 31 14
27 14 -10z m-283 -24 c7 -19 -32 -104 -48 -104 -8 0 -9 13 -5 41 11 69 38 101
53 63z m-2 -236 c-14 -57 -34 -88 -57 -88 -13 0 -29 51 -23 71 8 24 89 102 93
89 2 -5 -4 -37 -13 -72z"/>
<path d="M1658 834 c-30 -16 -37 -50 -16 -83 9 -15 8 -28 -6 -65 -28 -74 -38
-68 -35 24 3 69 1 83 -14 91 -14 9 -17 5 -17 -19 0 -31 -26 -102 -36 -102 -4
0 -4 20 -2 45 4 31 1 48 -8 56 -18 15 -24 9 -30 -32 -7 -41 10 -89 30 -89 9 0
22 12 30 28 l15 27 1 -36 c0 -39 21 -65 44 -56 7 3 22 26 31 51 l18 45 19 -24
c19 -25 19 -25 -1 -51 -25 -32 -26 -47 -4 -70 16 -15 18 -15 41 11 17 20 23
37 19 58 -3 24 2 36 27 58 17 16 26 29 20 29 -6 0 -19 -9 -29 -20 -25 -27 -28
-26 -59 20 -42 64 -30 98 32 84 l27 -5 -24 20 c-27 25 -37 25 -73 5z m48 -230
c-3 -8 -10 -14 -16 -14 -14 0 -13 33 3 49 10 10 13 9 15 -4 2 -9 1 -23 -2 -31z"/>
<path d="M554 765 c-9 -35 4 -95 22 -102 18 -7 44 14 44 35 0 13 -3 12 -16 -4
-14 -18 -15 -16 -11 28 6 62 -25 97 -39 43z"/>
<path d="M1961 547 c-8 -10 -7 -14 2 -14 8 0 14 6 14 14 0 7 -1 13 -2 13 -2 0
-8 -6 -14 -13z"/>
<path d="M873 498 c-16 -20 -33 -87 -34 -138 -1 -44 -1 -45 -10 -13 -5 18 -13
35 -18 38 -13 8 -41 -23 -41 -46 0 -23 -6 -24 -26 -4 -17 17 -94 21 -94 4 0
-6 8 -8 19 -4 30 9 42 -25 51 -139 9 -106 24 -156 47 -156 10 0 13 32 13 153
0 136 8 195 23 171 2 -5 8 -38 12 -74 15 -136 42 -128 44 13 2 121 10 174 29
189 14 12 15 3 9 -82 -4 -52 -11 -138 -17 -190 -18 -190 30 -254 80 -105 15
44 25 62 35 59 7 -3 16 0 21 7 4 7 3 10 -4 5 -19 -12 -19 19 0 58 16 31 24 37
44 33 28 -5 32 8 7 21 -39 21 -96 -31 -95 -86 1 -32 -35 -149 -48 -157 -19
-12 -22 51 -9 193 7 81 14 172 14 202 0 48 -3 55 -21 58 -11 2 -26 -3 -31 -10z
m-117 -244 l3 -39 -9 35 c-6 19 -15 44 -21 55 -10 19 -10 19 6 4 9 -9 19 -34
21 -55z m1 -111 c-2 -16 -4 -5 -4 22 0 28 2 40 4 28 2 -13 2 -35 0 -50z"/>
<path d="M1306 383 c-11 -11 15 -43 35 -43 16 0 18 3 10 19 -11 20 -35 33 -45
24z"/>
<path d="M1190 293 c-12 -28 -12 -28 -21 -5 -5 12 -17 22 -27 22 -16 0 -18 -7
-14 -62 3 -55 0 -67 -22 -93 -13 -16 -28 -27 -32 -23 -4 5 -8 32 -8 60 -1 60
-15 75 -33 37 -16 -33 0 -94 28 -109 17 -9 25 -6 49 20 17 18 30 25 32 18 8
-22 25 2 32 43 8 51 34 114 43 105 4 -3 5 -55 4 -114 -2 -87 1 -111 13 -121
21 -17 32 -8 52 44 16 43 18 45 35 29 17 -15 20 -15 44 0 14 9 25 20 25 25 0
5 8 7 19 4 10 -3 22 1 26 8 6 8 4 10 -5 4 -10 -6 -12 0 -7 29 8 49 25 69 54
63 27 -5 31 8 6 21 -39 20 -93 -25 -97 -81 -4 -41 -12 -57 -33 -57 -12 0 -14
12 -13 58 3 77 2 82 -14 82 -16 0 -26 -30 -26 -81 0 -39 -37 -139 -51 -139
-12 0 -11 9 2 106 14 100 8 134 -25 134 -15 0 -27 -9 -36 -27z"/>
<path d="M1536 305 c-9 -26 -7 -32 5 -12 6 10 9 21 6 23 -2 3 -7 -2 -11 -11z"/>
<path d="M1461 247 c-22 -28 -18 -90 9 -117 17 -17 24 -18 41 -9 20 10 70 106
69 132 -1 7 -14 -16 -29 -49 -44 -95 -75 -96 -64 -3 6 48 -6 69 -26 46z"/>
</g>
</svg>
